<svg xmlns="http://www.w3.org/2000/svg" width="32" height="32" viewBox="0 0 32 32">
  <defs><linearGradient id="g" x1="4" y1="4" x2="27" y2="27"><stop stop-color="#26d0ce"/><stop offset=".55" stop-color="#1688ff"/><stop offset="1" stop-color="#1551c8"/></linearGradient></defs>
  <path fill="url(#g)" d="M27.5 19.4c-1 6.1-6.1 9.1-11.4 9.1C8.7 28.5 3.5 23.3 3.5 16S9.2 3.5 16 3.5c5.8 0 10.1 3.6 11.5 8.2-3.2-2.5-8-3-11.5-.9-3.5 2.1-4.6 6.1-2.4 8.5 2.9 3.2 9.6 2.2 13.9.1z"/>
  <path fill="#50e3c2" d="M7.2 11.1c2.6-5 9.1-6.5 14-3.8-6.8-.6-10.4 3.4-9.6 7.1-2.1-.1-3.8-1.2-4.4-3.3z" opacity=".85"/>
</svg>
